<?xml version="1.0" standalone="no"?>
<!DOCTYPE svg PUBLIC "-//W3C//DTD SVG 20010904//EN"
 "http://www.w3.org/TR/2001/REC-SVG-20010904/DTD/svg10.dtd">
<svg version="1.0" xmlns="http://www.w3.org/2000/svg"
 width="256.000000pt" height="256.000000pt" viewBox="0 0 256.000000 256.000000"
 preserveAspectRatio="xMidYMid meet">
<metadata>
Created by potrace 1.14, written by Peter Selinger 2001-2017
</metadata>
<g transform="translate(0.000000,256.000000) scale(0.100000,-0.100000)"
fill="#000000" stroke="none">
<path d="M1101 2374 c-41 -7 -86 -16 -100 -20 -14 -4 -28 -8 -31 -8 -3 -1 -9
-4 -15 -7 -5 -4 -25 -10 -42 -14 -41 -8 -158 -65 -232 -112 -105 -67 -223
-178 -309 -292 -75 -100 -167 -308 -186 -422 -3 -19 -9 -55 -14 -81 -5 -26 -8
-105 -7 -175 6 -311 123 -577 346 -788 143 -134 379 -261 524 -280 16 -2 30
-4 30 -5 0 -13 318 -22 375 -10 25 4 59 10 75 13 114 18 307 101 420 182 103
73 241 219 295 310 13 22 27 42 30 45 14 12 87 190 96 235 1 6 11 53 22 105
56 272 -3 586 -156 824 -26 40 -38 56 -117 151 -123 147 -410 312 -595 340
-25 4 -54 10 -65 12 -45 12 -275 10 -344 -3z"/>
</g>
</svg>
